# xmcd
#
# Track frame offsets: 
#        150
#        13533
#        34850
#        51055
#        67410
#        87101
#        105108
#        131973
#        144836
#        166104
#        184618
#        201954
#        220179
#        239043
#        254997
#        267227
#
# Disc length: 3799 seconds
#
# Revision: 0
# Processed by: cddbd v1.5.2PL0 Copyright (c) Steve Scherf et al.
# Submitted via: ExactAudioCopy v1.3
#
DISCID=eb0ed510
DTITLE=Eric Clapton - Happy Xmas
DYEAR=2018
DGENRE=Blues
TTITLE0=White Christmas
TTITLE1=Away In A Manger (Once In Royal David's City)
TTITLE2=For Love On Christmas Day
TTITLE3=Everyday Will Be Like A Holiday
TTITLE4=Christmas Tears
TTITLE5=Home For The Holidays
TTITLE6=Jingle Bells (In Memory Of Avicii)
TTITLE7=Christmas In My Hometown
TTITLE8=It's Christmas
TTITLE9=Sentimental Moments
TTITLE10=Lonesome Christmas
TTITLE11=Silent Night
TTITLE12=Merry Christmas Baby
TTITLE13=Have Yoursef A Merry Little Christmas
TTITLE14=A Little Bit Of Christmas Love
TTITLE15=You Always Hurt The One You Love
EXTD=
EXTT0=
EXTT1=
EXTT2=
EXTT3=
EXTT4=
EXTT5=
EXTT6=
EXTT7=
EXTT8=
EXTT9=
EXTT10=
EXTT11=
EXTT12=
EXTT13=
EXTT14=
EXTT15=
PLAYORDER=
